<svg width="41" height="24" viewBox="0 0 41 24" fill="none" xmlns="http://www.w3.org/2000/svg">
<path fill-rule="evenodd" clip-rule="evenodd" d="M28.7402 23.9651C35.4801 23.9651 40.9438 18.8178 40.9438 12.4683C40.9438 6.11883 35.4801 0.971558 28.7402 0.971558C25.7197 0.971558 22.9554 2.00542 20.8244 3.71803C18.6934 2.00547 15.9292 0.971632 12.9086 0.971632C6.16878 0.971632 0.705078 6.11891 0.705078 12.4684C0.705078 18.8179 6.16878 23.9652 12.9086 23.9652C15.9292 23.9652 18.6935 22.9313 20.8245 21.2187C22.9555 22.9312 25.7197 23.9651 28.7402 23.9651Z" fill="#FF0006"/>
<path fill-rule="evenodd" clip-rule="evenodd" d="M20.8242 21.2185C23.448 19.1098 25.1118 15.9721 25.1118 12.4683C25.1118 8.96455 23.448 5.82685 20.8242 3.71813C22.9552 2.00547 25.7196 0.971558 28.7402 0.971558C35.48 0.971558 40.9437 6.11883 40.9437 12.4683C40.9437 18.8178 35.48 23.9651 28.7402 23.9651C25.7196 23.9651 22.9552 22.9312 20.8242 21.2185Z" fill="#F9A000"/>
<path fill-rule="evenodd" clip-rule="evenodd" d="M20.8246 21.218C23.4485 19.1093 25.1122 15.9716 25.1122 12.4678C25.1122 8.96406 23.4485 5.82637 20.8246 3.71765C18.2008 5.82637 16.5371 8.96406 16.5371 12.4678C16.5371 15.9716 18.2008 19.1093 20.8246 21.218Z" fill="#FF5E00"/>
</svg>
