<svg width="34" height="29" viewBox="0 0 34 29" fill="none" xmlns="http://www.w3.org/2000/svg">
<path fill-rule="evenodd" clip-rule="evenodd" d="M10.8322 18.9202H10.8307C10.2888 18.9214 9.84841 19.3452 9.84841 19.8659C9.84841 20.3875 10.2903 20.8119 10.8333 20.8119H28.6917C29.2357 20.8119 29.6765 21.2354 29.6765 21.7579C29.6765 22.2805 29.2357 22.7039 28.6917 22.7039H10.8333C9.20416 22.7039 7.87873 21.4308 7.87873 19.8659C7.87873 18.7014 8.613 17.699 9.65965 17.262C9.47294 16.4552 6.22861 2.43126 6.10396 1.89199H0.984841C0.44087 1.89199 0 1.46851 0 0.945997C0 0.423482 0.44087 0 0.984841 0H6.89389C7.35553 0 7.75511 0.307942 7.85539 0.740785L8.5594 3.78399H32.6311C32.9401 3.78399 33.2312 3.92343 33.4174 4.16042C33.6033 4.39741 33.6628 4.70437 33.5779 4.98989L29.6386 18.2339C29.5178 18.6398 29.1313 18.92 28.6917 18.92H10.8361L10.8322 18.9202ZM27.9518 17.028L31.3285 5.67605H9L11.6262 17.028H27.9518ZM12.6088 28.6788C10.9539 28.6788 9.60742 27.3386 9.60742 25.6914C9.60742 24.0442 10.9539 22.704 12.6088 22.704C14.2638 22.704 15.6103 24.0442 15.6103 25.6914C15.6103 27.3386 14.2638 28.6788 12.6088 28.6788ZM13.6103 25.6913C13.6103 25.1423 13.1614 24.6955 12.6098 24.6955C12.0583 24.6955 11.6094 25.1423 11.6094 25.6913C11.6094 26.2402 12.0583 26.6871 12.6098 26.6871C13.1614 26.6871 13.6103 26.2402 13.6103 25.6913ZM24.0078 25.6914C24.0078 27.3386 25.3543 28.6788 27.0092 28.6788C28.6642 28.6788 30.0106 27.3386 30.0106 25.6914C30.0106 24.0442 28.6642 22.704 27.0092 22.704C25.3543 22.704 24.0078 24.0442 24.0078 25.6914ZM27.0102 24.6955C27.5618 24.6955 28.0107 25.1423 28.0107 25.6913C28.0107 26.2402 27.5618 26.6871 27.0102 26.6871C26.4587 26.6871 26.0098 26.2402 26.0098 25.6913C26.0098 25.1423 26.4587 24.6955 27.0102 24.6955Z" fill="white"/>
</svg>
