<svg width="34" height="25" viewBox="0 0 34 25" fill="none" xmlns="http://www.w3.org/2000/svg">
<path d="M0 20.5431H10.7362V23.4778H0V20.5431ZM0 10.2716H13.8037V13.2063H0V10.2716ZM0 0H30.6749V2.93473H0V0Z" fill="#E6E6E6"/>
<path d="M25.3078 24.823C20.7194 24.823 17 21.2646 17 16.8747C17 12.4849 20.7194 8.92651 25.3078 8.92651C29.8962 8.92651 33.6156 12.4849 33.6156 16.8747C33.6156 21.2646 29.8962 24.823 25.3078 24.823ZM24.477 19.2592V20.8489H26.1386V19.2592H24.477ZM26.1386 17.9517C26.8062 17.7592 27.3794 17.3437 27.7537 16.7808C28.128 16.2178 28.2786 15.545 28.1779 14.8849C28.0773 14.2247 27.7321 13.6211 27.2053 13.1839C26.6785 12.7468 26.0051 12.5052 25.3078 12.5032C24.6356 12.5032 23.9841 12.7259 23.4641 13.1335C22.9442 13.5411 22.5878 14.1085 22.4557 14.7391L24.0857 15.0514C24.132 14.83 24.243 14.6257 24.4059 14.4623C24.5687 14.2989 24.7768 14.1831 25.0057 14.1284C25.2347 14.0737 25.4752 14.0823 25.6993 14.1532C25.9233 14.2242 26.1217 14.3545 26.2714 14.5292C26.421 14.7038 26.5157 14.9154 26.5446 15.1395C26.5734 15.3636 26.5351 15.5909 26.4341 15.795C26.3332 15.9991 26.1737 16.1716 25.9744 16.2924C25.775 16.4132 25.5438 16.4773 25.3078 16.4773C25.0875 16.4773 24.8761 16.5611 24.7203 16.7101C24.5645 16.8592 24.477 17.0614 24.477 17.2722V18.4644H26.1386V17.9517Z" fill="#E6E6E6"/>
</svg>
